:SAMPLES-PER-SECOND 30
:FRAME-RANGE 1-2009
:FULLY-SPECIFIED
:DEGREES
1884
root  21.3996 39.0367 -20.9103 -176.755 27.2069 -177.963
RightUpLeg  -2.36428 -18.5297 -18.8258
RightLeg  5.08904 -36.8995 1.53696
RightFoot  6.01325 -1.55198 10.4142
RightToes  4.71047e-010 1.2921e-014 -6.02303e-014
Spine  7.0746 -3.62853 -8.57076
Spine1  -1.86256 -4.6323 2.80615
HEad  15.614 -24.8647 2.83731
LeftShoulder1  1.83198 -1.76467 -28.701
LeftArm  6.2286 -2.08966 -26.3601
LeftForeArm  8.29829 -5.52042 -16.5844
LeftHand  0.348267 -0.511701 -6.83669
RightShoulder  0.493392 -1.41392 17.1822
RightArm  2.8709 2.46664 0.813353
RightForeArm  21.1879 25.0884 4.25256
RightHand  0.205022 2.66309 2.7486
LeftUpLeg  -16.641 43.7906 3.63965
LeftLeg  28.1963 14.767 8.75933
LeftFoot  -9.62505 0.125707 -4.53998
LeftToes  2.15783e-011 -7.56106e-012 -8.20802e-012
1885
root  20.581 38.947 -21.1258 -177.144 25.6945 -178.123
RightUpLeg  -3.78688 -18.6626 -18.8654
RightLeg  8.00947 -31.1631 -1.6941
RightFoot  0.648183 -1.25409 11.9445
RightToes  4.71047e-010 1.2921e-014 -6.02303e-014
Spine  7.6954 -3.10568 -8.70623
Spine1  -2.20325 -4.00601 1.88535
HEad  15.6462 -24.3293 0.966174
LeftShoulder1  1.87448 -1.83552 -29.0434
LeftArm  6.55594 -3.99546 -24.9844
LeftForeArm  7.76186 -5.57894 -16.6593
LeftHand  0.320307 -0.394171 -6.42735
RightShoulder  0.425619 -1.66749 16.7443
RightArm  5.04817 1.47333 0.355892
RightForeArm  20.549 21.073 4.70829
RightHand  0.237751 3.01614 3.05745
LeftUpLeg  -17.2721 40.6953 1.91022
LeftLeg  29.3277 15.9163 9.79974
LeftFoot  -10.7131 0.0857664 -3.93057
LeftToes  2.15783e-011 -7.56106e-012 -8.20802e-012
1886
root  19.8666 38.9222 -21.307 -177.515 24.6086 -177.836
RightUpLeg  -5.88686 -16.949 -17.6035
RightLeg  11.1338 -23.3415 -4.38965
RightFoot  -4.17006 -0.623693 9.47779
RightToes  4.71047e-010 1.2921e-014 -6.02303e-014
Spine  8.22692 -2.76038 -8.61486
Spine1  -1.85651 -3.62254 1.35103
HEad  14.9764 -22.5256 -0.695544
LeftShoulder1  1.81444 -1.7065 -28.7529
LeftArm  6.79675 -4.52857 -23.9079
LeftForeArm  7.09597 -6.37098 -16.3937
LeftHand  0.288726 -0.408555 -5.77451
RightShoulder  0.496227 -1.33792 16.4026
RightArm  4.23446 0.610297 0.0961726
RightForeArm  22.5429 18.2311 6.54844
RightHand  0.276468 2.94809 3.6266
LeftUpLeg  -17.2372 38.6913 1.03206
LeftLeg  29.8056 16.9524 10.5731
LeftFoot  -11.6567 0.0590214 -3.93673
LeftToes  2.15783e-011 -7.56106e-012 -8.20802e-012
1887
root  19.3033 38.9826 -21.4085 -177.822 23.1983 -177.526
RightUpLeg  -8.26505 -11.8323 -16.1146
RightLeg  15.5472 -17.8711 -5.78696
RightFoot  -5.48623 -0.456016 8.17162
RightToes  4.71047e-010 1.2921e-014 -6.02303e-014
Spine  8.95772 -2.64933 -9.05903
Spine1  -1.54177 -3.5937 1.19418
HEad  13.9202 -20.3766 -1.15496
LeftShoulder1  1.74749 -1.60152 -28.1422
LeftArm  6.58608 -4.52117 -22.7181
LeftForeArm  6.40351 -7.1256 -16.0786
LeftHand  0.264107 -0.346281 -5.34435
RightShoulder  0.66376 -0.638342 16.6212
RightArm  -6.26676 0.916921 -0.14492
RightForeArm  34.5894 11.6954 9.67457
RightHand  0.255922 4.06682 2.86774
LeftUpLeg  -16.8174 36.7402 0.390761
LeftLeg  29.2373 17.6789 10.7598
LeftFoot  -11.8755 0.0559531 -3.26787
LeftToes  2.15783e-011 -7.56106e-012 -8.20802e-012
1888
root  18.9022 39.0628 -21.4462 -177.835 21.2804 -177.367
RightUpLeg  -10.7452 -10.0441 -14.5532
RightLeg  20.3199 -13.4689 -5.65429
RightFoot  -6.29108 -0.518629 10.7565
RightToes  4.71047e-010 1.2921e-014 -6.02303e-014
Spine  9.38646 -2.66507 -10.1464
Spine1  -1.28501 -3.78023 1.41424
HEad  13.2499 -18.9525 -1.19052
LeftShoulder1  1.72275 -1.61847 -27.5294
LeftArm  5.00186 -4.92858 -21.4727
LeftForeArm  7.15732 -6.52232 -16.2186
LeftHand  0.234835 -0.177491 -4.91444
RightShoulder  0.738627 -0.378825 17.1246
RightArm  -7.88142 0.435686 -0.130364
RightForeArm  36.2871 10.0869 10.2141
RightHand  0.221899 4.06333 2.45172
LeftUpLeg  -16.7055 34.7092 -0.393625
LeftLeg  28.2481 18.0503 10.5684
LeftFoot  -11.7445 0.0611008 -2.64947
LeftToes  2.15783e-011 -7.56106e-012 -8.20802e-012
1889
root  18.556 39.203 -21.4705 -177.683 19.1298 -177.224
RightUpLeg  -13.2969 -12.1501 -12.4696
RightLeg  24.8279 -10.2994 -5.37131
RightFoot  -6.78457 -0.541222 12.3931
RightToes  4.71047e-010 1.2921e-014 -6.02303e-014
Spine  9.74725 -2.71154 -10.8659
Spine1  -1.32554 -3.94848 1.70292
HEad  13.0935 -18.2649 -0.824595
LeftShoulder1  1.72748 -1.69741 -27.0976
LeftArm  2.78961 -6.05568 -20.1891
LeftForeArm  8.50197 -4.66198 -16.7545
LeftHand  0.221121 0.0408206 -4.84498
RightShoulder  0.779237 -0.29094 17.7962
RightArm  -7.78216 -0.0535411 -0.0830624
RightForeArm  36.6674 9.83422 10.3144
RightHand  0.203706 4.16414 2.19818
LeftUpLeg  -16.3789 33.446 -1.17326
LeftLeg  26.2463 17.7046 9.60685
LeftFoot  -11.2833 0.0685558 -1.7064
LeftToes  2.15783e-011 -7.56106e-012 -8.20802e-012
1890
root  18.2915 39.3731 -21.4992 -177.412 16.625 -176.851
RightUpLeg  -15.6356 -12.8657 -9.96283
RightLeg  28.9345 -10.7018 -6.56203
RightFoot  -7.07181 -0.566391 13.835
RightToes  4.71047e-010 1.2921e-014 -6.02303e-014
Spine  9.68929 -2.92911 -11.3148
Spine1  -1.01078 -4.27326 2.19381
HEad  13.1505 -18.0874 -0.161842
LeftShoulder1  1.72449 -1.76609 -26.5921
LeftArm  -0.0591685 -7.16921 -19.2998
LeftForeArm  10.2779 -2.45059 -17.1555
LeftHand  0.206251 0.233837 -4.7163
RightShoulder  0.740342 -0.526511 18.4791
RightArm  -6.41692 0.00633239 0.470467
RightForeArm  35.6559 10.6956 10.0891
RightHand  0.232685 4.42546 2.46471
LeftUpLeg  -15.7359 31.2152 -1.23083
LeftLeg  24.0888 17.9938 8.36016
LeftFoot  -10.6781 0.0693585 -0.909681
LeftToes  2.15783e-011 -7.56106e-012 -8.20802e-012
